<svg id="Layer_1" data-name="Layer 1" xmlns="http://www.w3.org/2000/svg" viewBox="0 0 146.19 227.96"><defs><style>.cls-1{fill:#dab71c;opacity:0.47;}</style></defs><path class="cls-1" d="M282.34,521.68l-.25-21.55-14.62-12a35.25,35.25,0,0,1-7.4-8.39s-4.68-13.65-14.2-23.18c-4.16-4.16-5-10.37-6.47-14.44h0a56,56,0,0,0-6.61-12.81l-7.46-10.79A4.41,4.41,0,0,1,227,412h0a15.8,15.8,0,0,1,15.64,1.08h0a67.08,67.08,0,0,1,17.85,17.5l2.12,3a7.28,7.28,0,0,0,9.38,2.28h0L271.36,406l-2.55-77.2a10.5,10.5,0,0,1,4.37-8.89h0a7.94,7.94,0,0,1,8.07-.72h0a8,8,0,0,1,4.48,6.56l8.33,69.48a1.13,1.13,0,0,0,1.39,1h0a1.14,1.14,0,0,0,.85-1l3.56-52.19,1.54-28.34a9,9,0,0,1,5.41-6.86h0a9,9,0,0,1,8.88,1.13l.72.55a9,9,0,0,1,3.55,7.15l-.29,78.05a1.12,1.12,0,0,0,.89,1.11l.95.2L327.68,329c1.09-8.92,6.31-10.68,9.69-10.28,5.7.67,7.92,4,8.07,10,.47,17.53-1.7,67.8-2,74.34a1.1,1.1,0,0,0,.6,1l1.07.57,11.07-55.2a7.84,7.84,0,0,1,11.13-3.32h0c3.12,1.89,3.45,4.49,3.39,9.16,0,0-5.94,51.9-7.49,62l-4.7,67.11a25,25,0,0,1-5.38,12.05l-3.37,4.1-.18,20.47a10.6,10.6,0,0,1-8.33,11.43h0a112.13,112.13,0,0,1-43.31.77L291.1,532A10.61,10.61,0,0,1,282.34,521.68Z" transform="translate(-224.55 -307.04)"/></svg>